# xmcd CD database file
# Copyright (C) 1993-1998 Ti Kan
# 
# Track frame offsets:
#     150
#     16452
#     32345
#     49325
#     87532
#     108920
#     145485
# 
# Disc length: 2336 seconds
# 
# Revision: 1
# Processed by: cddbd v1.4b41PL1 Copyright (c) Steve Scherf et al.
# Submitted via: DiscPlay 4.0.4
# 
DISCID=59091e07
DTITLE=Chic - Chic's Greatest Hits
DYEAR=1900
DGENRE=
TTITLE0=Le Freak
TTITLE1=I want your love
TTITLE2=Dance, dance, dance
TTITLE3=Everybody dance
TTITLE4=Chic cheer
TTITLE5=Good times
TTITLE6=My feet keep dancing
EXTD=
EXTT0=
EXTT1=
EXTT2=
EXTT3=
EXTT4=
EXTT5=
EXTT6=
PLAYORDER=
